<svg width="211" height="29" viewBox="0 0 211 29" fill="none" xmlns="http://www.w3.org/2000/svg">
<path d="M-6.66082e-05 27.6777V1.49592H17.3352V6.05984H5.53544V12.2985H16.1846V16.8624H5.53544V27.6777H-6.66082e-05ZM20.9563 27.6777V8.04137H26.4023V27.6777H20.9563ZM23.6921 5.51012C22.8824 5.51012 22.1878 5.24165 21.6082 4.70472C21.0372 4.15927 20.7517 3.50728 20.7517 2.74876C20.7517 1.99876 21.0372 1.35529 21.6082 0.818359C22.1878 0.272904 22.8824 0.000176191 23.6921 0.000176191C24.5017 0.000176191 25.1921 0.272904 25.7631 0.818359C26.3426 1.35529 26.6324 1.99876 26.6324 2.74876C26.6324 3.50728 26.3426 4.15927 25.7631 4.70472C25.1921 5.24165 24.5017 5.51012 23.6921 5.51012ZM36.2109 1.49592V27.6777H30.7648V1.49592H36.2109ZM45.5081 22.0272L45.5209 15.4945H46.3135L52.6033 8.04137H58.8547L50.4044 17.9107H49.1132L45.5081 22.0272ZM40.5734 27.6777V1.49592H46.0195V27.6777H40.5734ZM52.8462 27.6777L47.0678 19.1252L50.6984 15.2772L59.2254 27.6777H52.8462ZM69.5901 28.0613C67.6043 28.0613 65.887 27.6394 64.4381 26.7956C62.9978 25.9434 61.8856 24.7587 61.1015 23.2417C60.3174 21.7161 59.9254 19.9476 59.9254 17.9363C59.9254 15.9078 60.3174 14.1351 61.1015 12.6181C61.8856 11.0925 62.9978 9.90785 64.4381 9.0641C65.887 8.21182 67.6043 7.78569 69.5901 7.78569C71.5759 7.78569 73.289 8.21182 74.7293 9.0641C76.1782 9.90785 77.2947 11.0925 78.0788 12.6181C78.8629 14.1351 79.2549 15.9078 79.2549 17.9363C79.2549 19.9476 78.8629 21.7161 78.0788 23.2417C77.2947 24.7587 76.1782 25.9434 74.7293 26.7956C73.289 27.6394 71.5759 28.0613 69.5901 28.0613ZM69.6157 23.8425C70.5191 23.8425 71.2734 23.5868 71.8785 23.0755C72.4836 22.5556 72.9396 21.8482 73.2464 20.9533C73.5617 20.0584 73.7194 19.0399 73.7194 17.8979C73.7194 16.7559 73.5617 15.7374 73.2464 14.8425C72.9396 13.9476 72.4836 13.2402 71.8785 12.7203C71.2734 12.2005 70.5191 11.9405 69.6157 11.9405C68.7038 11.9405 67.9367 12.2005 67.3146 12.7203C66.7009 13.2402 66.2364 13.9476 65.9211 14.8425C65.6143 15.7374 65.4609 16.7559 65.4609 17.8979C65.4609 19.0399 65.6143 20.0584 65.9211 20.9533C66.2364 21.8482 66.7009 22.5556 67.3146 23.0755C67.9367 23.5868 68.7038 23.8425 69.6157 23.8425ZM82.7961 27.6777V8.04137H87.9864V11.5059H88.2166C88.6256 10.3553 89.3075 9.44762 90.262 8.78285C91.2166 8.11807 92.3586 7.78569 93.6881 7.78569C95.0347 7.78569 96.181 8.12234 97.1271 8.79563C98.0731 9.4604 98.7038 10.3638 99.0191 11.5059H99.2237C99.6242 10.3809 100.349 9.48171 101.397 8.80842C102.454 8.1266 103.702 7.78569 105.143 7.78569C106.975 7.78569 108.462 8.3695 109.604 9.53711C110.755 10.6962 111.33 12.3411 111.33 14.4718V27.6777H105.897V15.5456C105.897 14.4547 105.607 13.6365 105.028 13.0911C104.448 12.5456 103.724 12.2729 102.854 12.2729C101.866 12.2729 101.094 12.5882 100.54 13.2189C99.9864 13.8411 99.7095 14.6635 99.7095 15.6863V27.6777H94.4296V15.4306C94.4296 14.4675 94.1526 13.7005 93.5987 13.1294C93.0532 12.5584 92.333 12.2729 91.4381 12.2729C90.833 12.2729 90.2876 12.4263 89.8018 12.7331C89.3245 13.0314 88.9452 13.4533 88.664 13.9988C88.3827 14.5357 88.2421 15.1664 88.2421 15.8908V27.6777H82.7961ZM137.633 1.49592V27.6777H132.852L121.462 11.199H121.27V27.6777H115.734V1.49592H120.592L131.893 17.9618H132.124V1.49592H137.633ZM142.207 27.6777V1.49592H159.849V6.05984H147.742V12.2985H158.941V16.8624H147.742V23.1138H159.9V27.6777H142.207ZM169.44 1.49592L174.72 10.4192H174.925L180.23 1.49592H186.481L178.491 14.5868L186.66 27.6777H180.294L174.925 18.7417H174.72L169.351 27.6777H163.01L171.204 14.5868L163.163 1.49592H169.44ZM188.987 6.05984V1.49592H210.49V6.05984H202.474V27.6777H197.003V6.05984H188.987Z" fill="url(#paint0_linear_2675_98)"/>
<defs>
<linearGradient id="paint0_linear_2675_98" x1="223.74" y1="16.1777" x2="-14.26" y2="16.1777" gradientUnits="userSpaceOnUse">
<stop stop-color="#212842"/>
<stop offset="1" stop-color="#3354FF"/>
</linearGradient>
</defs>
</svg>
