<svg width="1028" height="422" viewBox="0 0 1028 422" fill="none" xmlns="http://www.w3.org/2000/svg">
<rect x="344" width="316" height="422" rx="32" fill="#655CFE"/>
<rect x="688" y="286" width="316" height="136" rx="32" fill="#C2BFFD"/>
<path d="M440.662 185.696C440.526 184.486 439.963 183.548 438.975 182.884C437.986 182.21 436.742 181.874 435.242 181.874C434.168 181.874 433.239 182.044 432.455 182.385C431.671 182.717 431.061 183.178 430.627 183.766C430.2 184.345 429.987 185.006 429.987 185.747C429.987 186.369 430.132 186.906 430.422 187.358C430.72 187.81 431.108 188.189 431.585 188.496C432.071 188.794 432.591 189.045 433.145 189.25C433.699 189.446 434.232 189.608 434.743 189.736L437.3 190.401C438.135 190.605 438.992 190.882 439.869 191.232C440.747 191.581 441.561 192.041 442.311 192.612C443.061 193.183 443.666 193.891 444.127 194.734C444.595 195.578 444.83 196.588 444.83 197.764C444.83 199.247 444.446 200.564 443.679 201.714C442.921 202.865 441.817 203.773 440.368 204.438C438.928 205.102 437.185 205.435 435.139 205.435C433.179 205.435 431.483 205.124 430.051 204.501C428.619 203.879 427.499 202.997 426.689 201.855C425.879 200.705 425.432 199.341 425.347 197.764H429.31C429.387 198.71 429.693 199.499 430.23 200.129C430.776 200.751 431.47 201.216 432.314 201.523C433.166 201.821 434.1 201.97 435.114 201.97C436.23 201.97 437.223 201.795 438.093 201.446C438.97 201.088 439.661 200.594 440.164 199.963C440.666 199.324 440.918 198.578 440.918 197.726C440.918 196.95 440.696 196.315 440.253 195.821C439.818 195.327 439.226 194.918 438.476 194.594C437.735 194.27 436.895 193.984 435.958 193.737L432.864 192.893C430.767 192.322 429.105 191.483 427.878 190.375C426.659 189.267 426.05 187.801 426.05 185.977C426.05 184.469 426.459 183.152 427.277 182.027C428.095 180.902 429.203 180.028 430.601 179.406C431.999 178.776 433.575 178.46 435.331 178.46C437.104 178.46 438.668 178.771 440.023 179.393C441.387 180.016 442.46 180.872 443.244 181.963C444.029 183.045 444.438 184.29 444.472 185.696H440.662ZM457.515 205.396C455.674 205.396 454.067 204.974 452.695 204.131C451.323 203.287 450.258 202.107 449.499 200.589C448.741 199.072 448.361 197.3 448.361 195.271C448.361 193.234 448.741 191.453 449.499 189.928C450.258 188.402 451.323 187.217 452.695 186.374C454.067 185.53 455.674 185.108 457.515 185.108C459.356 185.108 460.962 185.53 462.334 186.374C463.706 187.217 464.772 188.402 465.53 189.928C466.289 191.453 466.668 193.234 466.668 195.271C466.668 197.3 466.289 199.072 465.53 200.589C464.772 202.107 463.706 203.287 462.334 204.131C460.962 204.974 459.356 205.396 457.515 205.396ZM457.528 202.188C458.721 202.188 459.709 201.872 460.493 201.241C461.278 200.611 461.857 199.771 462.232 198.723C462.616 197.675 462.807 196.52 462.807 195.259C462.807 194.006 462.616 192.855 462.232 191.807C461.857 190.75 461.278 189.902 460.493 189.263C459.709 188.624 458.721 188.304 457.528 188.304C456.326 188.304 455.329 188.624 454.536 189.263C453.752 189.902 453.168 190.75 452.785 191.807C452.41 192.855 452.222 194.006 452.222 195.259C452.222 196.52 452.41 197.675 452.785 198.723C453.168 199.771 453.752 200.611 454.536 201.241C455.329 201.872 456.326 202.188 457.528 202.188ZM480.28 185.364V188.432H469.183V185.364H480.28ZM472.226 205V183.088C472.226 181.861 472.494 180.842 473.031 180.033C473.568 179.214 474.28 178.605 475.166 178.205C476.053 177.795 477.016 177.591 478.056 177.591C478.823 177.591 479.479 177.655 480.024 177.783C480.57 177.902 480.975 178.013 481.239 178.115L480.344 181.209C480.165 181.158 479.935 181.098 479.654 181.03C479.372 180.953 479.031 180.915 478.631 180.915C477.702 180.915 477.037 181.145 476.637 181.605C476.244 182.065 476.048 182.73 476.048 183.599V205H472.226ZM493.39 185.364V188.432H482.664V185.364H493.39ZM485.541 180.659H489.363V199.234C489.363 199.976 489.474 200.534 489.695 200.909C489.917 201.276 490.203 201.527 490.552 201.663C490.91 201.791 491.298 201.855 491.715 201.855C492.022 201.855 492.291 201.834 492.521 201.791C492.751 201.749 492.93 201.714 493.058 201.689L493.748 204.847C493.526 204.932 493.211 205.017 492.802 205.102C492.393 205.196 491.882 205.247 491.268 205.256C490.262 205.273 489.325 205.094 488.455 204.719C487.586 204.344 486.883 203.764 486.346 202.98C485.809 202.196 485.541 201.212 485.541 200.027V180.659ZM501.876 205L496.097 185.364H500.047L503.895 199.784H504.087L507.948 185.364H511.898L515.733 199.72H515.925L519.748 185.364H523.698L517.932 205H514.033L510.045 190.822H509.751L505.762 205H501.876ZM533.04 205.435C531.796 205.435 530.671 205.205 529.665 204.744C528.659 204.276 527.862 203.598 527.274 202.712C526.695 201.825 526.405 200.739 526.405 199.452C526.405 198.344 526.618 197.432 527.044 196.716C527.47 196 528.046 195.433 528.77 195.016C529.494 194.598 530.304 194.283 531.199 194.07C532.094 193.857 533.006 193.695 533.935 193.584C535.111 193.447 536.066 193.337 536.798 193.251C537.531 193.158 538.064 193.009 538.396 192.804C538.729 192.599 538.895 192.267 538.895 191.807V191.717C538.895 190.601 538.58 189.736 537.949 189.122C537.327 188.509 536.398 188.202 535.162 188.202C533.875 188.202 532.861 188.487 532.119 189.058C531.387 189.621 530.879 190.247 530.598 190.938L527.006 190.119C527.432 188.926 528.054 187.963 528.872 187.23C529.699 186.489 530.649 185.952 531.723 185.619C532.797 185.278 533.926 185.108 535.111 185.108C535.895 185.108 536.726 185.202 537.604 185.389C538.49 185.568 539.317 185.901 540.084 186.386C540.86 186.872 541.494 187.567 541.989 188.47C542.483 189.365 542.73 190.528 542.73 191.96V205H538.997V202.315H538.844C538.597 202.81 538.226 203.295 537.732 203.773C537.237 204.25 536.602 204.646 535.827 204.962C535.051 205.277 534.122 205.435 533.04 205.435ZM533.871 202.366C534.928 202.366 535.831 202.158 536.581 201.74C537.34 201.322 537.915 200.777 538.307 200.104C538.708 199.422 538.908 198.693 538.908 197.918V195.386C538.771 195.523 538.507 195.651 538.115 195.77C537.732 195.881 537.293 195.979 536.798 196.064C536.304 196.141 535.823 196.213 535.354 196.281C534.885 196.341 534.493 196.392 534.178 196.435C533.436 196.528 532.759 196.686 532.145 196.908C531.54 197.129 531.054 197.449 530.688 197.866C530.33 198.276 530.151 198.821 530.151 199.503C530.151 200.449 530.5 201.165 531.199 201.651C531.898 202.128 532.789 202.366 533.871 202.366ZM547.822 205V185.364H551.516V188.483H551.721C552.079 187.426 552.709 186.595 553.613 185.99C554.525 185.376 555.556 185.07 556.706 185.07C556.945 185.07 557.226 185.078 557.55 185.095C557.883 185.112 558.143 185.134 558.33 185.159V188.815C558.177 188.773 557.904 188.726 557.512 188.675C557.12 188.615 556.728 188.585 556.336 188.585C555.432 188.585 554.627 188.777 553.92 189.161C553.221 189.536 552.667 190.06 552.258 190.733C551.849 191.398 551.644 192.156 551.644 193.009V205H547.822ZM569.398 205.396C567.463 205.396 565.797 204.983 564.399 204.156C563.01 203.321 561.936 202.149 561.178 200.641C560.428 199.124 560.053 197.347 560.053 195.31C560.053 193.298 560.428 191.526 561.178 189.991C561.936 188.457 562.993 187.26 564.348 186.399C565.712 185.538 567.306 185.108 569.129 185.108C570.237 185.108 571.311 185.291 572.351 185.658C573.391 186.024 574.324 186.599 575.151 187.384C575.977 188.168 576.629 189.186 577.107 190.439C577.584 191.683 577.823 193.196 577.823 194.977V196.332H562.213V193.469H574.077C574.077 192.463 573.872 191.572 573.463 190.797C573.054 190.013 572.479 189.395 571.737 188.943C571.004 188.491 570.144 188.266 569.155 188.266C568.081 188.266 567.144 188.53 566.343 189.058C565.55 189.578 564.936 190.26 564.502 191.104C564.075 191.939 563.862 192.847 563.862 193.827V196.064C563.862 197.376 564.093 198.493 564.553 199.413C565.021 200.334 565.673 201.037 566.509 201.523C567.344 202 568.32 202.239 569.436 202.239C570.161 202.239 570.821 202.136 571.418 201.932C572.014 201.719 572.53 201.403 572.965 200.986C573.399 200.568 573.732 200.053 573.962 199.439L577.58 200.091C577.29 201.156 576.77 202.089 576.02 202.891C575.279 203.683 574.345 204.301 573.22 204.744C572.104 205.179 570.83 205.396 569.398 205.396ZM428.386 249V222.818H444.801V226.219H432.336V234.196H443.944V237.584H432.336V245.599H444.954V249H428.386ZM453.593 237.341V249H449.771V229.364H453.44V232.56H453.683C454.134 231.52 454.842 230.685 455.805 230.054C456.776 229.423 457.999 229.108 459.474 229.108C460.812 229.108 461.984 229.389 462.99 229.952C463.995 230.506 464.775 231.332 465.329 232.432C465.883 233.531 466.16 234.891 466.16 236.51V249H462.338V236.97C462.338 235.547 461.967 234.435 461.225 233.634C460.484 232.824 459.465 232.419 458.17 232.419C457.284 232.419 456.495 232.611 455.805 232.994C455.123 233.378 454.582 233.94 454.181 234.682C453.789 235.415 453.593 236.301 453.593 237.341ZM479.519 256.773C477.96 256.773 476.617 256.568 475.492 256.159C474.376 255.75 473.464 255.209 472.757 254.536C472.049 253.862 471.521 253.125 471.171 252.324L474.457 250.969C474.687 251.344 474.994 251.74 475.377 252.158C475.769 252.584 476.298 252.946 476.963 253.244C477.636 253.543 478.501 253.692 479.558 253.692C481.007 253.692 482.204 253.338 483.15 252.631C484.096 251.932 484.569 250.815 484.569 249.281V245.42H484.326C484.096 245.838 483.764 246.303 483.329 246.814C482.903 247.325 482.315 247.768 481.565 248.143C480.815 248.518 479.839 248.706 478.637 248.706C477.086 248.706 475.688 248.344 474.444 247.619C473.208 246.886 472.228 245.808 471.504 244.385C470.788 242.953 470.43 241.193 470.43 239.105C470.43 237.017 470.784 235.227 471.491 233.736C472.207 232.244 473.187 231.102 474.431 230.31C475.676 229.509 477.086 229.108 478.663 229.108C479.882 229.108 480.866 229.312 481.616 229.722C482.366 230.122 482.95 230.591 483.367 231.128C483.794 231.665 484.122 232.138 484.352 232.547H484.633V229.364H488.379V249.435C488.379 251.122 487.987 252.507 487.203 253.589C486.419 254.672 485.357 255.473 484.019 255.993C482.69 256.513 481.19 256.773 479.519 256.773ZM479.481 245.536C480.58 245.536 481.509 245.28 482.268 244.768C483.035 244.249 483.615 243.507 484.007 242.544C484.407 241.572 484.607 240.409 484.607 239.054C484.607 237.733 484.411 236.57 484.019 235.564C483.627 234.558 483.052 233.774 482.294 233.212C481.535 232.641 480.597 232.355 479.481 232.355C478.33 232.355 477.372 232.653 476.605 233.25C475.838 233.838 475.258 234.639 474.866 235.653C474.482 236.668 474.291 237.801 474.291 239.054C474.291 240.341 474.487 241.47 474.879 242.442C475.271 243.413 475.85 244.172 476.617 244.717C477.393 245.263 478.347 245.536 479.481 245.536ZM493.505 249V229.364H497.328V249H493.505ZM495.436 226.334C494.771 226.334 494.2 226.112 493.722 225.669C493.254 225.217 493.019 224.68 493.019 224.058C493.019 223.428 493.254 222.891 493.722 222.447C494.2 221.996 494.771 221.77 495.436 221.77C496.1 221.77 496.667 221.996 497.136 222.447C497.613 222.891 497.852 223.428 497.852 224.058C497.852 224.68 497.613 225.217 497.136 225.669C496.667 226.112 496.1 226.334 495.436 226.334ZM506.292 237.341V249H502.47V229.364H506.139V232.56H506.382C506.834 231.52 507.541 230.685 508.504 230.054C509.476 229.423 510.699 229.108 512.173 229.108C513.511 229.108 514.683 229.389 515.689 229.952C516.694 230.506 517.474 231.332 518.028 232.432C518.582 233.531 518.859 234.891 518.859 236.51V249H515.037V236.97C515.037 235.547 514.666 234.435 513.925 233.634C513.183 232.824 512.165 232.419 510.869 232.419C509.983 232.419 509.194 232.611 508.504 232.994C507.822 233.378 507.281 233.94 506.881 234.682C506.488 235.415 506.292 236.301 506.292 237.341ZM532.449 249.396C530.514 249.396 528.848 248.983 527.45 248.156C526.061 247.321 524.987 246.149 524.229 244.641C523.479 243.124 523.104 241.347 523.104 239.31C523.104 237.298 523.479 235.526 524.229 233.991C524.987 232.457 526.044 231.26 527.399 230.399C528.763 229.538 530.356 229.108 532.18 229.108C533.288 229.108 534.362 229.291 535.402 229.658C536.442 230.024 537.375 230.599 538.202 231.384C539.028 232.168 539.68 233.186 540.157 234.439C540.635 235.683 540.873 237.196 540.873 238.977V240.332H525.264V237.469H537.128C537.128 236.463 536.923 235.572 536.514 234.797C536.105 234.013 535.53 233.395 534.788 232.943C534.055 232.491 533.194 232.266 532.206 232.266C531.132 232.266 530.194 232.53 529.393 233.058C528.601 233.578 527.987 234.26 527.552 235.104C527.126 235.939 526.913 236.847 526.913 237.827V240.064C526.913 241.376 527.143 242.493 527.604 243.413C528.072 244.334 528.724 245.037 529.559 245.523C530.395 246 531.371 246.239 532.487 246.239C533.211 246.239 533.872 246.136 534.469 245.932C535.065 245.719 535.581 245.403 536.015 244.986C536.45 244.568 536.782 244.053 537.013 243.439L540.631 244.091C540.341 245.156 539.821 246.089 539.071 246.891C538.329 247.683 537.396 248.301 536.271 248.744C535.155 249.179 533.881 249.396 532.449 249.396ZM553.578 249.396C551.643 249.396 549.977 248.983 548.579 248.156C547.19 247.321 546.116 246.149 545.357 244.641C544.607 243.124 544.232 241.347 544.232 239.31C544.232 237.298 544.607 235.526 545.357 233.991C546.116 232.457 547.173 231.26 548.528 230.399C549.892 229.538 551.485 229.108 553.309 229.108C554.417 229.108 555.491 229.291 556.531 229.658C557.57 230.024 558.504 230.599 559.33 231.384C560.157 232.168 560.809 233.186 561.286 234.439C561.764 235.683 562.002 237.196 562.002 238.977V240.332H546.393V237.469H558.257C558.257 236.463 558.052 235.572 557.643 234.797C557.234 234.013 556.659 233.395 555.917 232.943C555.184 232.491 554.323 232.266 553.335 232.266C552.261 232.266 551.323 232.53 550.522 233.058C549.73 233.578 549.116 234.26 548.681 235.104C548.255 235.939 548.042 236.847 548.042 237.827V240.064C548.042 241.376 548.272 242.493 548.732 243.413C549.201 244.334 549.853 245.037 550.688 245.523C551.524 246 552.499 246.239 553.616 246.239C554.34 246.239 555.001 246.136 555.597 245.932C556.194 245.719 556.71 245.403 557.144 244.986C557.579 244.568 557.911 244.053 558.142 243.439L561.759 244.091C561.47 245.156 560.95 246.089 560.2 246.891C559.458 247.683 558.525 248.301 557.4 248.744C556.284 249.179 555.009 249.396 553.578 249.396ZM566.243 249V229.364H569.938V232.483H570.143C570.501 231.426 571.131 230.595 572.035 229.99C572.947 229.376 573.978 229.07 575.128 229.07C575.367 229.07 575.648 229.078 575.972 229.095C576.305 229.112 576.564 229.134 576.752 229.159V232.815C576.599 232.773 576.326 232.726 575.934 232.675C575.542 232.615 575.15 232.585 574.758 232.585C573.854 232.585 573.049 232.777 572.341 233.161C571.643 233.536 571.089 234.06 570.68 234.733C570.27 235.398 570.066 236.156 570.066 237.009V249H566.243Z" fill="black"/>
<rect y="145" width="316" height="277" rx="32" fill="#9B95FF"/>
<path d="M123.905 278H115.429V251.818H124.173C126.739 251.818 128.942 252.342 130.783 253.391C132.624 254.43 134.034 255.926 135.014 257.878C136.003 259.821 136.497 262.152 136.497 264.871C136.497 267.598 135.999 269.942 135.002 271.902C134.013 273.862 132.581 275.371 130.706 276.428C128.831 277.476 126.564 278 123.905 278ZM119.379 274.548H123.688C125.682 274.548 127.34 274.173 128.661 273.423C129.982 272.665 130.97 271.57 131.627 270.138C132.283 268.697 132.611 266.942 132.611 264.871C132.611 262.817 132.283 261.074 131.627 259.642C130.979 258.21 130.012 257.124 128.725 256.382C127.438 255.641 125.84 255.27 123.931 255.27H119.379V274.548ZM146.817 278.435C145.573 278.435 144.448 278.205 143.442 277.744C142.437 277.276 141.64 276.598 141.052 275.712C140.472 274.825 140.182 273.739 140.182 272.452C140.182 271.344 140.395 270.432 140.822 269.716C141.248 269 141.823 268.433 142.547 268.016C143.272 267.598 144.081 267.283 144.976 267.07C145.871 266.857 146.783 266.695 147.712 266.584C148.888 266.447 149.843 266.337 150.576 266.251C151.309 266.158 151.841 266.009 152.174 265.804C152.506 265.599 152.672 265.267 152.672 264.807V264.717C152.672 263.601 152.357 262.736 151.726 262.122C151.104 261.509 150.175 261.202 148.939 261.202C147.653 261.202 146.638 261.487 145.897 262.058C145.164 262.621 144.657 263.247 144.376 263.938L140.783 263.119C141.209 261.926 141.831 260.963 142.65 260.23C143.476 259.489 144.427 258.952 145.501 258.619C146.574 258.278 147.704 258.108 148.888 258.108C149.672 258.108 150.503 258.202 151.381 258.389C152.268 258.568 153.094 258.901 153.861 259.386C154.637 259.872 155.272 260.567 155.766 261.47C156.26 262.365 156.508 263.528 156.508 264.96V278H152.775V275.315H152.621C152.374 275.81 152.003 276.295 151.509 276.773C151.015 277.25 150.38 277.646 149.604 277.962C148.829 278.277 147.9 278.435 146.817 278.435ZM147.648 275.366C148.705 275.366 149.608 275.158 150.358 274.74C151.117 274.322 151.692 273.777 152.084 273.104C152.485 272.422 152.685 271.693 152.685 270.918V268.386C152.549 268.523 152.285 268.651 151.893 268.77C151.509 268.881 151.07 268.979 150.576 269.064C150.081 269.141 149.6 269.213 149.131 269.281C148.662 269.341 148.27 269.392 147.955 269.435C147.214 269.528 146.536 269.686 145.922 269.908C145.317 270.129 144.831 270.449 144.465 270.866C144.107 271.276 143.928 271.821 143.928 272.503C143.928 273.449 144.278 274.165 144.976 274.651C145.675 275.128 146.566 275.366 147.648 275.366ZM170.765 258.364V261.432H160.039V258.364H170.765ZM162.916 253.659H166.738V272.234C166.738 272.976 166.849 273.534 167.07 273.909C167.292 274.276 167.578 274.527 167.927 274.663C168.285 274.791 168.673 274.855 169.09 274.855C169.397 274.855 169.666 274.834 169.896 274.791C170.126 274.749 170.305 274.714 170.433 274.689L171.123 277.847C170.901 277.932 170.586 278.017 170.177 278.102C169.768 278.196 169.257 278.247 168.643 278.256C167.637 278.273 166.7 278.094 165.83 277.719C164.961 277.344 164.258 276.764 163.721 275.98C163.184 275.196 162.916 274.212 162.916 273.027V253.659ZM180.708 278.435C179.464 278.435 178.339 278.205 177.333 277.744C176.327 277.276 175.53 276.598 174.942 275.712C174.363 274.825 174.073 273.739 174.073 272.452C174.073 271.344 174.286 270.432 174.712 269.716C175.138 269 175.714 268.433 176.438 268.016C177.162 267.598 177.972 267.283 178.867 267.07C179.762 266.857 180.674 266.695 181.603 266.584C182.779 266.447 183.733 266.337 184.466 266.251C185.199 266.158 185.732 266.009 186.064 265.804C186.397 265.599 186.563 265.267 186.563 264.807V264.717C186.563 263.601 186.248 262.736 185.617 262.122C184.995 261.509 184.066 261.202 182.83 261.202C181.543 261.202 180.529 261.487 179.787 262.058C179.055 262.621 178.547 263.247 178.266 263.938L174.674 263.119C175.1 261.926 175.722 260.963 176.54 260.23C177.367 259.489 178.317 258.952 179.391 258.619C180.465 258.278 181.594 258.108 182.779 258.108C183.563 258.108 184.394 258.202 185.272 258.389C186.158 258.568 186.985 258.901 187.752 259.386C188.528 259.872 189.162 260.567 189.657 261.47C190.151 262.365 190.398 263.528 190.398 264.96V278H186.665V275.315H186.512C186.265 275.81 185.894 276.295 185.4 276.773C184.905 277.25 184.27 277.646 183.495 277.962C182.719 278.277 181.79 278.435 180.708 278.435ZM181.539 275.366C182.596 275.366 183.499 275.158 184.249 274.74C185.008 274.322 185.583 273.777 185.975 273.104C186.376 272.422 186.576 271.693 186.576 270.918V268.386C186.439 268.523 186.175 268.651 185.783 268.77C185.4 268.881 184.961 268.979 184.466 269.064C183.972 269.141 183.491 269.213 183.022 269.281C182.553 269.341 182.161 269.392 181.846 269.435C181.104 269.528 180.427 269.686 179.813 269.908C179.208 270.129 178.722 270.449 178.356 270.866C177.998 271.276 177.819 271.821 177.819 272.503C177.819 273.449 178.168 274.165 178.867 274.651C179.566 275.128 180.456 275.366 181.539 275.366ZM97.9533 322H93.7601L103.182 295.818H107.746L117.168 322H112.975L105.573 300.574H105.368L97.9533 322ZM98.6564 311.747H112.259V315.071H98.6564V311.747ZM124.464 310.341V322H120.642V302.364H124.311V305.56H124.554C125.006 304.52 125.713 303.685 126.676 303.054C127.648 302.423 128.871 302.108 130.345 302.108C131.683 302.108 132.855 302.389 133.861 302.952C134.866 303.506 135.646 304.332 136.2 305.432C136.754 306.531 137.031 307.891 137.031 309.51V322H133.209V309.97C133.209 308.547 132.838 307.435 132.096 306.634C131.355 305.824 130.336 305.419 129.041 305.419C128.155 305.419 127.366 305.611 126.676 305.994C125.994 306.378 125.453 306.94 125.052 307.682C124.66 308.415 124.464 309.301 124.464 310.341ZM147.872 322.435C146.628 322.435 145.503 322.205 144.497 321.744C143.491 321.276 142.694 320.598 142.106 319.712C141.527 318.825 141.237 317.739 141.237 316.452C141.237 315.344 141.45 314.432 141.876 313.716C142.302 313 142.878 312.433 143.602 312.016C144.327 311.598 145.136 311.283 146.031 311.07C146.926 310.857 147.838 310.695 148.767 310.584C149.943 310.447 150.898 310.337 151.631 310.251C152.363 310.158 152.896 310.009 153.229 309.804C153.561 309.599 153.727 309.267 153.727 308.807V308.717C153.727 307.601 153.412 306.736 152.781 306.122C152.159 305.509 151.23 305.202 149.994 305.202C148.707 305.202 147.693 305.487 146.952 306.058C146.219 306.621 145.711 307.247 145.43 307.938L141.838 307.119C142.264 305.926 142.886 304.963 143.704 304.23C144.531 303.489 145.481 302.952 146.555 302.619C147.629 302.278 148.758 302.108 149.943 302.108C150.727 302.108 151.558 302.202 152.436 302.389C153.322 302.568 154.149 302.901 154.916 303.386C155.692 303.872 156.327 304.567 156.821 305.47C157.315 306.365 157.562 307.528 157.562 308.96V322H153.829V319.315H153.676C153.429 319.81 153.058 320.295 152.564 320.773C152.069 321.25 151.434 321.646 150.659 321.962C149.883 322.277 148.954 322.435 147.872 322.435ZM148.703 319.366C149.76 319.366 150.663 319.158 151.413 318.74C152.172 318.322 152.747 317.777 153.139 317.104C153.54 316.422 153.74 315.693 153.74 314.918V312.386C153.604 312.523 153.339 312.651 152.947 312.77C152.564 312.881 152.125 312.979 151.631 313.064C151.136 313.141 150.655 313.213 150.186 313.281C149.717 313.341 149.325 313.392 149.01 313.435C148.268 313.528 147.591 313.686 146.977 313.908C146.372 314.129 145.886 314.449 145.52 314.866C145.162 315.276 144.983 315.821 144.983 316.503C144.983 317.449 145.332 318.165 146.031 318.651C146.73 319.128 147.621 319.366 148.703 319.366ZM166.476 295.818V322H162.654V295.818H166.476ZM174.035 329.364C173.464 329.364 172.944 329.317 172.475 329.223C172.006 329.138 171.657 329.044 171.427 328.942L172.347 325.81C173.046 325.997 173.668 326.078 174.214 326.053C174.759 326.027 175.241 325.822 175.658 325.439C176.084 325.055 176.459 324.429 176.783 323.56L177.256 322.256L170.072 302.364H174.162L179.135 317.602H179.34L184.313 302.364H188.417L180.324 324.621C179.949 325.643 179.472 326.509 178.893 327.216C178.313 327.932 177.623 328.469 176.822 328.827C176.02 329.185 175.091 329.364 174.035 329.364ZM206.724 307.158L203.259 307.771C203.114 307.328 202.884 306.906 202.569 306.506C202.262 306.105 201.844 305.777 201.316 305.521C200.787 305.266 200.127 305.138 199.334 305.138C198.252 305.138 197.349 305.381 196.624 305.866C195.9 306.344 195.537 306.962 195.537 307.72C195.537 308.376 195.78 308.905 196.266 309.305C196.752 309.706 197.536 310.034 198.618 310.29L201.738 311.006C203.545 311.423 204.891 312.067 205.778 312.936C206.664 313.805 207.107 314.935 207.107 316.324C207.107 317.5 206.766 318.548 206.084 319.469C205.411 320.381 204.469 321.097 203.259 321.616C202.057 322.136 200.664 322.396 199.079 322.396C196.88 322.396 195.086 321.928 193.697 320.99C192.307 320.044 191.455 318.702 191.14 316.963L194.834 316.401C195.064 317.364 195.537 318.092 196.253 318.587C196.969 319.072 197.903 319.315 199.053 319.315C200.306 319.315 201.307 319.055 202.057 318.536C202.807 318.007 203.182 317.364 203.182 316.605C203.182 315.991 202.952 315.476 202.492 315.058C202.04 314.641 201.346 314.325 200.408 314.112L197.084 313.384C195.252 312.966 193.897 312.301 193.019 311.389C192.15 310.477 191.715 309.322 191.715 307.925C191.715 306.766 192.039 305.751 192.687 304.882C193.334 304.013 194.229 303.335 195.371 302.849C196.513 302.355 197.822 302.108 199.296 302.108C201.418 302.108 203.089 302.568 204.307 303.489C205.526 304.401 206.331 305.624 206.724 307.158ZM220.476 302.364V305.432H209.75V302.364H220.476ZM212.627 297.659H216.449V316.234C216.449 316.976 216.56 317.534 216.781 317.909C217.003 318.276 217.289 318.527 217.638 318.663C217.996 318.791 218.384 318.855 218.801 318.855C219.108 318.855 219.377 318.834 219.607 318.791C219.837 318.749 220.016 318.714 220.144 318.689L220.834 321.847C220.612 321.932 220.297 322.017 219.888 322.102C219.479 322.196 218.968 322.247 218.354 322.256C217.348 322.273 216.411 322.094 215.541 321.719C214.672 321.344 213.969 320.764 213.432 319.98C212.895 319.196 212.627 318.212 212.627 317.027V297.659Z" fill="black"/>
<path d="M810.457 316.818H814.42V334.038C814.42 335.871 813.99 337.494 813.129 338.909C812.268 340.315 811.058 341.423 809.498 342.233C807.939 343.034 806.111 343.435 804.014 343.435C801.926 343.435 800.102 343.034 798.542 342.233C796.983 341.423 795.773 340.315 794.912 338.909C794.051 337.494 793.621 335.871 793.621 334.038V316.818H797.571V333.719C797.571 334.903 797.831 335.956 798.351 336.876C798.879 337.797 799.625 338.521 800.588 339.05C801.551 339.57 802.693 339.83 804.014 339.83C805.344 339.83 806.49 339.57 807.453 339.05C808.425 338.521 809.166 337.797 809.677 336.876C810.197 335.956 810.457 334.903 810.457 333.719V316.818ZM824.114 316.818V343H820.164V316.818H824.114ZM839.531 315.591L831.094 346.938H827.681L836.118 315.591H839.531ZM859.922 316.818H863.885V334.038C863.885 335.871 863.455 337.494 862.594 338.909C861.733 340.315 860.523 341.423 858.963 342.233C857.404 343.034 855.575 343.435 853.479 343.435C851.391 343.435 849.567 343.034 848.007 342.233C846.448 341.423 845.237 340.315 844.377 338.909C843.516 337.494 843.085 335.871 843.085 334.038V316.818H847.036V333.719C847.036 334.903 847.296 335.956 847.816 336.876C848.344 337.797 849.09 338.521 850.053 339.05C851.016 339.57 852.158 339.83 853.479 339.83C854.808 339.83 855.955 339.57 856.918 339.05C857.889 338.521 858.631 337.797 859.142 336.876C859.662 335.956 859.922 334.903 859.922 333.719V316.818ZM872.377 316.818L878.641 327.058H878.846L885.11 316.818H889.687L881.53 329.909L889.738 343H885.135L878.846 332.901H878.641L872.351 343H867.749L876.097 329.909L867.8 316.818H872.377ZM779.825 387H771.349V360.818H780.093C782.659 360.818 784.862 361.342 786.703 362.391C788.544 363.43 789.954 364.926 790.934 366.878C791.923 368.821 792.417 371.152 792.417 373.871C792.417 376.598 791.919 378.942 790.922 380.902C789.933 382.862 788.501 384.371 786.626 385.428C784.751 386.476 782.484 387 779.825 387ZM775.299 383.548H779.608C781.602 383.548 783.26 383.173 784.581 382.423C785.902 381.665 786.89 380.57 787.547 379.138C788.203 377.697 788.531 375.942 788.531 373.871C788.531 371.817 788.203 370.074 787.547 368.642C786.899 367.21 785.931 366.124 784.645 365.382C783.358 364.641 781.76 364.27 779.85 364.27H775.299V383.548ZM805.486 387.396C803.551 387.396 801.885 386.983 800.487 386.156C799.098 385.321 798.024 384.149 797.266 382.641C796.516 381.124 796.141 379.347 796.141 377.31C796.141 375.298 796.516 373.526 797.266 371.991C798.024 370.457 799.081 369.26 800.436 368.399C801.8 367.538 803.393 367.108 805.217 367.108C806.325 367.108 807.399 367.291 808.439 367.658C809.479 368.024 810.412 368.599 811.239 369.384C812.065 370.168 812.717 371.186 813.195 372.439C813.672 373.683 813.911 375.196 813.911 376.977V378.332H798.301V375.469H810.165C810.165 374.463 809.96 373.572 809.551 372.797C809.142 372.013 808.567 371.395 807.825 370.943C807.092 370.491 806.232 370.266 805.243 370.266C804.169 370.266 803.232 370.53 802.43 371.058C801.638 371.578 801.024 372.26 800.589 373.104C800.163 373.939 799.95 374.847 799.95 375.827V378.064C799.95 379.376 800.18 380.493 800.641 381.413C801.109 382.334 801.761 383.037 802.597 383.523C803.432 384 804.408 384.239 805.524 384.239C806.249 384.239 806.909 384.136 807.506 383.932C808.102 383.719 808.618 383.403 809.053 382.986C809.487 382.568 809.82 382.053 810.05 381.439L813.668 382.091C813.378 383.156 812.858 384.089 812.108 384.891C811.366 385.683 810.433 386.301 809.308 386.744C808.192 387.179 806.918 387.396 805.486 387.396ZM832.866 372.158L829.402 372.771C829.257 372.328 829.027 371.906 828.711 371.506C828.404 371.105 827.987 370.777 827.458 370.521C826.93 370.266 826.27 370.138 825.477 370.138C824.395 370.138 823.491 370.381 822.767 370.866C822.042 371.344 821.68 371.962 821.68 372.72C821.68 373.376 821.923 373.905 822.409 374.305C822.895 374.706 823.679 375.034 824.761 375.29L827.88 376.006C829.687 376.423 831.034 377.067 831.92 377.936C832.806 378.805 833.25 379.935 833.25 381.324C833.25 382.5 832.909 383.548 832.227 384.469C831.554 385.381 830.612 386.097 829.402 386.616C828.2 387.136 826.806 387.396 825.221 387.396C823.022 387.396 821.228 386.928 819.839 385.99C818.45 385.044 817.598 383.702 817.282 381.963L820.977 381.401C821.207 382.364 821.68 383.092 822.396 383.587C823.112 384.072 824.045 384.315 825.196 384.315C826.449 384.315 827.45 384.055 828.2 383.536C828.95 383.007 829.325 382.364 829.325 381.605C829.325 380.991 829.095 380.476 828.635 380.058C828.183 379.641 827.488 379.325 826.551 379.112L823.227 378.384C821.395 377.966 820.039 377.301 819.162 376.389C818.292 375.477 817.858 374.322 817.858 372.925C817.858 371.766 818.181 370.751 818.829 369.882C819.477 369.013 820.372 368.335 821.514 367.849C822.656 367.355 823.964 367.108 825.439 367.108C827.561 367.108 829.231 367.568 830.45 368.489C831.669 369.401 832.474 370.624 832.866 372.158ZM837.452 387V367.364H841.275V387H837.452ZM839.383 364.334C838.718 364.334 838.147 364.112 837.67 363.669C837.201 363.217 836.967 362.68 836.967 362.058C836.967 361.428 837.201 360.891 837.67 360.447C838.147 359.996 838.718 359.77 839.383 359.77C840.048 359.77 840.614 359.996 841.083 360.447C841.56 360.891 841.799 361.428 841.799 362.058C841.799 362.68 841.56 363.217 841.083 363.669C840.614 364.112 840.048 364.334 839.383 364.334ZM854.65 394.773C853.091 394.773 851.748 394.568 850.623 394.159C849.507 393.75 848.595 393.209 847.887 392.536C847.18 391.862 846.652 391.125 846.302 390.324L849.588 388.969C849.818 389.344 850.125 389.74 850.508 390.158C850.9 390.584 851.429 390.946 852.093 391.244C852.767 391.543 853.632 391.692 854.689 391.692C856.137 391.692 857.335 391.338 858.281 390.631C859.227 389.932 859.7 388.815 859.7 387.281V383.42H859.457C859.227 383.838 858.895 384.303 858.46 384.814C858.034 385.325 857.446 385.768 856.696 386.143C855.946 386.518 854.97 386.706 853.768 386.706C852.217 386.706 850.819 386.344 849.575 385.619C848.339 384.886 847.359 383.808 846.635 382.385C845.919 380.953 845.561 379.193 845.561 377.105C845.561 375.017 845.914 373.227 846.622 371.736C847.338 370.244 848.318 369.102 849.562 368.31C850.806 367.509 852.217 367.108 853.794 367.108C855.012 367.108 855.997 367.312 856.747 367.722C857.497 368.122 858.081 368.591 858.498 369.128C858.924 369.665 859.252 370.138 859.483 370.547H859.764V367.364H863.51V387.435C863.51 389.122 863.118 390.507 862.333 391.589C861.549 392.672 860.488 393.473 859.15 393.993C857.821 394.513 856.321 394.773 854.65 394.773ZM854.612 383.536C855.711 383.536 856.64 383.28 857.399 382.768C858.166 382.249 858.745 381.507 859.137 380.544C859.538 379.572 859.738 378.409 859.738 377.054C859.738 375.733 859.542 374.57 859.15 373.564C858.758 372.558 858.183 371.774 857.424 371.212C856.666 370.641 855.728 370.355 854.612 370.355C853.461 370.355 852.502 370.653 851.735 371.25C850.968 371.838 850.389 372.639 849.997 373.653C849.613 374.668 849.422 375.801 849.422 377.054C849.422 378.341 849.618 379.47 850.01 380.442C850.402 381.413 850.981 382.172 851.748 382.717C852.524 383.263 853.478 383.536 854.612 383.536ZM872.458 375.341V387H868.636V367.364H872.305V370.56H872.548C873 369.52 873.707 368.685 874.67 368.054C875.642 367.423 876.865 367.108 878.339 367.108C879.677 367.108 880.849 367.389 881.855 367.952C882.86 368.506 883.64 369.332 884.194 370.432C884.748 371.531 885.025 372.891 885.025 374.51V387H881.203V374.97C881.203 373.547 880.832 372.435 880.091 371.634C879.349 370.824 878.331 370.419 877.035 370.419C876.149 370.419 875.36 370.611 874.67 370.994C873.988 371.378 873.447 371.94 873.047 372.682C872.654 373.415 872.458 374.301 872.458 375.341ZM898.615 387.396C896.68 387.396 895.014 386.983 893.616 386.156C892.227 385.321 891.153 384.149 890.395 382.641C889.645 381.124 889.27 379.347 889.27 377.31C889.27 375.298 889.645 373.526 890.395 371.991C891.153 370.457 892.21 369.26 893.565 368.399C894.929 367.538 896.522 367.108 898.346 367.108C899.454 367.108 900.528 367.291 901.568 367.658C902.608 368.024 903.541 368.599 904.368 369.384C905.194 370.168 905.846 371.186 906.324 372.439C906.801 373.683 907.039 375.196 907.039 376.977V378.332H891.43V375.469H903.294C903.294 374.463 903.089 373.572 902.68 372.797C902.271 372.013 901.696 371.395 900.954 370.943C900.221 370.491 899.36 370.266 898.372 370.266C897.298 370.266 896.36 370.53 895.559 371.058C894.767 371.578 894.153 372.26 893.718 373.104C893.292 373.939 893.079 374.847 893.079 375.827V378.064C893.079 379.376 893.309 380.493 893.77 381.413C894.238 382.334 894.89 383.037 895.725 383.523C896.561 384 897.537 384.239 898.653 384.239C899.377 384.239 900.038 384.136 900.635 383.932C901.231 383.719 901.747 383.403 902.181 382.986C902.616 382.568 902.949 382.053 903.179 381.439L906.797 382.091C906.507 383.156 905.987 384.089 905.237 384.891C904.495 385.683 903.562 386.301 902.437 386.744C901.321 387.179 900.047 387.396 898.615 387.396ZM911.281 387V367.364H914.975V370.483H915.18C915.538 369.426 916.168 368.595 917.072 367.99C917.984 367.376 919.015 367.07 920.165 367.07C920.404 367.07 920.685 367.078 921.009 367.095C921.342 367.112 921.602 367.134 921.789 367.159V370.815C921.636 370.773 921.363 370.726 920.971 370.675C920.579 370.615 920.187 370.585 919.795 370.585C918.891 370.585 918.086 370.777 917.379 371.161C916.68 371.536 916.126 372.06 915.717 372.733C915.308 373.398 915.103 374.156 915.103 375.009V387H911.281Z" fill="black"/>
</svg>
